<svg width="205" height="64" viewBox="0 0 205 64" fill="none" xmlns="http://www.w3.org/2000/svg">
<rect width="205" height="64" rx="32" fill="#3671E9"/>
<path d="M30.1026 38.68C29.0226 38.68 28.0986 38.518 27.3306 38.194C26.5626 37.87 25.9806 37.444 25.5846 36.916C25.1886 36.388 24.9786 35.812 24.9546 35.188C24.9546 35.092 24.9906 35.008 25.0626 34.936C25.1346 34.852 25.2246 34.81 25.3326 34.81H26.9706C27.1026 34.81 27.2106 34.84 27.2946 34.9C27.3786 34.96 27.4566 35.044 27.5286 35.152C27.6486 35.56 27.9186 35.902 28.3386 36.178C28.7706 36.454 29.3586 36.592 30.1026 36.592C30.9426 36.592 31.5726 36.454 31.9926 36.178C32.4246 35.89 32.6406 35.5 32.6406 35.008C32.6406 34.684 32.5326 34.414 32.3166 34.198C32.1006 33.982 31.7706 33.796 31.3266 33.64C30.8946 33.472 30.2466 33.274 29.3826 33.046C27.9666 32.71 26.9286 32.266 26.2686 31.714C25.6086 31.162 25.2786 30.37 25.2786 29.338C25.2786 28.642 25.4706 28.024 25.8546 27.484C26.2386 26.932 26.7846 26.5 27.4926 26.188C28.2126 25.876 29.0466 25.72 29.9946 25.72C30.9906 25.72 31.8486 25.894 32.5686 26.242C33.3006 26.59 33.8526 27.028 34.2246 27.556C34.6086 28.072 34.8126 28.588 34.8366 29.104C34.8366 29.2 34.8006 29.29 34.7286 29.374C34.6566 29.446 34.5666 29.482 34.4586 29.482H32.7486C32.4846 29.482 32.3046 29.374 32.2086 29.158C32.1486 28.774 31.9146 28.456 31.5066 28.204C31.0986 27.94 30.5946 27.808 29.9946 27.808C29.3346 27.808 28.8126 27.934 28.4286 28.186C28.0566 28.438 27.8706 28.804 27.8706 29.284C27.8706 29.608 27.9666 29.878 28.1586 30.094C28.3506 30.31 28.6506 30.502 29.0586 30.67C29.4666 30.826 30.0606 31.006 30.8406 31.21C31.9086 31.45 32.7546 31.72 33.3786 32.02C34.0146 32.32 34.4826 32.698 34.7826 33.154C35.0826 33.61 35.2326 34.192 35.2326 34.9C35.2326 35.68 35.0166 36.358 34.5846 36.934C34.1646 37.498 33.5646 37.93 32.7846 38.23C32.0166 38.53 31.1226 38.68 30.1026 38.68ZM41.309 38.5C40.217 38.5 39.395 38.218 38.843 37.654C38.291 37.078 38.015 36.238 38.015 35.134V31.066H36.593C36.473 31.066 36.371 31.024 36.287 30.94C36.203 30.856 36.161 30.754 36.161 30.634V29.572C36.161 29.452 36.203 29.35 36.287 29.266C36.371 29.182 36.473 29.14 36.593 29.14H38.015V26.152C38.015 26.02 38.057 25.918 38.141 25.846C38.225 25.762 38.327 25.72 38.447 25.72H39.941C40.073 25.72 40.175 25.762 40.247 25.846C40.331 25.918 40.373 26.02 40.373 26.152V29.14H42.623C42.743 29.14 42.845 29.182 42.929 29.266C43.013 29.35 43.055 29.452 43.055 29.572V30.634C43.055 30.754 43.013 30.856 42.929 30.94C42.845 31.024 42.743 31.066 42.623 31.066H40.373V34.936C40.373 35.452 40.463 35.842 40.643 36.106C40.823 36.37 41.117 36.502 41.525 36.502H42.785C42.917 36.502 43.019 36.544 43.091 36.628C43.175 36.7 43.217 36.802 43.217 36.934V38.068C43.217 38.188 43.175 38.29 43.091 38.374C43.019 38.458 42.917 38.5 42.785 38.5H41.309ZM47.531 38.68C46.919 38.68 46.355 38.56 45.839 38.32C45.335 38.068 44.933 37.732 44.633 37.312C44.345 36.892 44.201 36.43 44.201 35.926C44.201 35.11 44.531 34.45 45.191 33.946C45.851 33.442 46.757 33.1 47.909 32.92L50.375 32.56V32.182C50.375 31.666 50.243 31.276 49.979 31.012C49.715 30.748 49.295 30.616 48.719 30.616C48.323 30.616 48.005 30.688 47.765 30.832C47.525 30.976 47.327 31.126 47.171 31.282C47.027 31.426 46.931 31.522 46.883 31.57C46.835 31.714 46.745 31.786 46.613 31.786H45.209C45.101 31.786 45.005 31.75 44.921 31.678C44.849 31.606 44.813 31.51 44.813 31.39C44.825 31.09 44.969 30.754 45.245 30.382C45.533 29.998 45.971 29.668 46.559 29.392C47.147 29.104 47.873 28.96 48.737 28.96C50.153 28.96 51.185 29.278 51.833 29.914C52.481 30.55 52.805 31.384 52.805 32.416V38.068C52.805 38.188 52.763 38.29 52.679 38.374C52.607 38.458 52.505 38.5 52.373 38.5H50.879C50.759 38.5 50.657 38.458 50.573 38.374C50.489 38.29 50.447 38.188 50.447 38.068V37.366C50.183 37.75 49.811 38.068 49.331 38.32C48.851 38.56 48.251 38.68 47.531 38.68ZM48.143 36.952C48.803 36.952 49.343 36.736 49.763 36.304C50.183 35.872 50.393 35.248 50.393 34.432V34.072L48.593 34.36C47.213 34.576 46.523 35.038 46.523 35.746C46.523 36.13 46.679 36.43 46.991 36.646C47.315 36.85 47.699 36.952 48.143 36.952ZM55.5458 38.5C55.4258 38.5 55.3238 38.458 55.2398 38.374C55.1558 38.29 55.1138 38.188 55.1138 38.068V29.59C55.1138 29.458 55.1558 29.35 55.2398 29.266C55.3238 29.182 55.4258 29.14 55.5458 29.14H57.0218C57.1538 29.14 57.2618 29.182 57.3458 29.266C57.4298 29.35 57.4718 29.458 57.4718 29.59V30.328C58.0718 29.536 58.9358 29.14 60.0638 29.14H60.8198C60.9518 29.14 61.0538 29.182 61.1258 29.266C61.2098 29.338 61.2518 29.44 61.2518 29.572V30.886C61.2518 31.006 61.2098 31.108 61.1258 31.192C61.0538 31.276 60.9518 31.318 60.8198 31.318H59.3978C58.8338 31.318 58.3898 31.48 58.0658 31.804C57.7418 32.128 57.5798 32.572 57.5798 33.136V38.068C57.5798 38.188 57.5378 38.29 57.4538 38.374C57.3698 38.458 57.2678 38.5 57.1478 38.5H55.5458ZM66.9028 38.5C65.8108 38.5 64.9888 38.218 64.4368 37.654C63.8848 37.078 63.6088 36.238 63.6088 35.134V31.066H62.1868C62.0668 31.066 61.9648 31.024 61.8808 30.94C61.7968 30.856 61.7548 30.754 61.7548 30.634V29.572C61.7548 29.452 61.7968 29.35 61.8808 29.266C61.9648 29.182 62.0668 29.14 62.1868 29.14H63.6088V26.152C63.6088 26.02 63.6508 25.918 63.7348 25.846C63.8188 25.762 63.9208 25.72 64.0408 25.72H65.5348C65.6668 25.72 65.7688 25.762 65.8408 25.846C65.9248 25.918 65.9668 26.02 65.9668 26.152V29.14H68.2168C68.3368 29.14 68.4388 29.182 68.5228 29.266C68.6068 29.35 68.6488 29.452 68.6488 29.572V30.634C68.6488 30.754 68.6068 30.856 68.5228 30.94C68.4388 31.024 68.3368 31.066 68.2168 31.066H65.9668V34.936C65.9668 35.452 66.0568 35.842 66.2368 36.106C66.4168 36.37 66.7108 36.502 67.1188 36.502H68.3788C68.5108 36.502 68.6128 36.544 68.6848 36.628C68.7688 36.7 68.8108 36.802 68.8108 36.934V38.068C68.8108 38.188 68.7688 38.29 68.6848 38.374C68.6128 38.458 68.5108 38.5 68.3788 38.5H66.9028ZM74.9345 38.5C74.8145 38.5 74.7125 38.458 74.6285 38.374C74.5445 38.29 74.5025 38.188 74.5025 38.068V29.572C74.5025 29.44 74.5445 29.338 74.6285 29.266C74.7125 29.182 74.8145 29.14 74.9345 29.14H76.3565C76.4885 29.14 76.5905 29.182 76.6625 29.266C76.7465 29.338 76.7885 29.44 76.7885 29.572V30.184C77.4365 29.368 78.3065 28.96 79.3985 28.96C80.7305 28.96 81.6605 29.494 82.1885 30.562C82.4765 30.082 82.8845 29.698 83.4125 29.41C83.9405 29.11 84.5105 28.96 85.1225 28.96C86.1065 28.96 86.9105 29.296 87.5345 29.968C88.1585 30.64 88.4705 31.618 88.4705 32.902V38.068C88.4705 38.188 88.4285 38.29 88.3445 38.374C88.2725 38.458 88.1705 38.5 88.0385 38.5H86.5445C86.4245 38.5 86.3225 38.458 86.2385 38.374C86.1545 38.29 86.1125 38.188 86.1125 38.068V33.046C86.1125 32.29 85.9505 31.744 85.6265 31.408C85.3145 31.072 84.9005 30.904 84.3845 30.904C83.9165 30.904 83.5145 31.078 83.1785 31.426C82.8545 31.762 82.6925 32.302 82.6925 33.046V38.068C82.6925 38.188 82.6505 38.29 82.5665 38.374C82.4945 38.458 82.3925 38.5 82.2605 38.5H80.7485C80.6285 38.5 80.5265 38.458 80.4425 38.374C80.3585 38.29 80.3165 38.188 80.3165 38.068V33.046C80.3165 32.302 80.1545 31.762 79.8305 31.426C79.5065 31.078 79.0925 30.904 78.5885 30.904C78.1205 30.904 77.7185 31.078 77.3825 31.426C77.0585 31.762 76.8965 32.302 76.8965 33.046V38.068C76.8965 38.188 76.8545 38.29 76.7705 38.374C76.6985 38.458 76.5965 38.5 76.4645 38.5H74.9345ZM91.1222 27.61C91.0022 27.61 90.9002 27.568 90.8162 27.484C90.7322 27.4 90.6902 27.298 90.6902 27.178V25.864C90.6902 25.732 90.7322 25.624 90.8162 25.54C90.9002 25.456 91.0022 25.414 91.1222 25.414H92.7782C92.9102 25.414 93.0182 25.456 93.1022 25.54C93.1862 25.624 93.2282 25.732 93.2282 25.864V27.178C93.2282 27.298 93.1802 27.4 93.0842 27.484C93.0002 27.568 92.8982 27.61 92.7782 27.61H91.1222ZM91.1942 38.5C91.0742 38.5 90.9722 38.458 90.8882 38.374C90.8042 38.29 90.7622 38.188 90.7622 38.068V29.572C90.7622 29.44 90.8042 29.338 90.8882 29.266C90.9722 29.182 91.0742 29.14 91.1942 29.14H92.7242C92.8442 29.14 92.9462 29.182 93.0302 29.266C93.1142 29.35 93.1562 29.452 93.1562 29.572V38.068C93.1562 38.188 93.1142 38.29 93.0302 38.374C92.9462 38.458 92.8442 38.5 92.7242 38.5H91.1942ZM95.9579 38.5C95.8379 38.5 95.7359 38.458 95.6519 38.374C95.5679 38.29 95.5259 38.188 95.5259 38.068V29.572C95.5259 29.44 95.5679 29.338 95.6519 29.266C95.7359 29.182 95.8379 29.14 95.9579 29.14H97.4519C97.5839 29.14 97.6859 29.182 97.7579 29.266C97.8419 29.338 97.8839 29.44 97.8839 29.572V30.31C98.6159 29.41 99.6179 28.96 100.89 28.96C101.994 28.96 102.87 29.32 103.518 30.04C104.166 30.76 104.49 31.75 104.49 33.01V38.068C104.49 38.188 104.448 38.29 104.364 38.374C104.292 38.458 104.19 38.5 104.058 38.5H102.438C102.318 38.5 102.216 38.458 102.132 38.374C102.048 38.29 102.006 38.188 102.006 38.068V33.118C102.006 32.422 101.832 31.882 101.484 31.498C101.148 31.102 100.662 30.904 100.026 30.904C99.4139 30.904 98.9219 31.102 98.5499 31.498C98.1779 31.894 97.9919 32.434 97.9919 33.118V38.068C97.9919 38.188 97.9499 38.29 97.8659 38.374C97.7939 38.458 97.6919 38.5 97.5599 38.5H95.9579ZM107.136 27.61C107.016 27.61 106.914 27.568 106.83 27.484C106.746 27.4 106.704 27.298 106.704 27.178V25.864C106.704 25.732 106.746 25.624 106.83 25.54C106.914 25.456 107.016 25.414 107.136 25.414H108.792C108.924 25.414 109.032 25.456 109.116 25.54C109.2 25.624 109.242 25.732 109.242 25.864V27.178C109.242 27.298 109.194 27.4 109.098 27.484C109.014 27.568 108.912 27.61 108.792 27.61H107.136ZM107.208 38.5C107.088 38.5 106.986 38.458 106.902 38.374C106.818 38.29 106.776 38.188 106.776 38.068V29.572C106.776 29.44 106.818 29.338 106.902 29.266C106.986 29.182 107.088 29.14 107.208 29.14H108.738C108.858 29.14 108.96 29.182 109.044 29.266C109.128 29.35 109.17 29.452 109.17 29.572V38.068C109.17 38.188 109.128 38.29 109.044 38.374C108.96 38.458 108.858 38.5 108.738 38.5H107.208ZM111.972 38.5C111.852 38.5 111.75 38.458 111.666 38.374C111.582 38.29 111.54 38.188 111.54 38.068V29.572C111.54 29.44 111.582 29.338 111.666 29.266C111.75 29.182 111.852 29.14 111.972 29.14H113.466C113.598 29.14 113.7 29.182 113.772 29.266C113.856 29.338 113.898 29.44 113.898 29.572V30.31C114.63 29.41 115.632 28.96 116.904 28.96C118.008 28.96 118.884 29.32 119.532 30.04C120.18 30.76 120.504 31.75 120.504 33.01V38.068C120.504 38.188 120.462 38.29 120.378 38.374C120.306 38.458 120.204 38.5 120.072 38.5H118.452C118.332 38.5 118.23 38.458 118.146 38.374C118.062 38.29 118.02 38.188 118.02 38.068V33.118C118.02 32.422 117.846 31.882 117.498 31.498C117.162 31.102 116.676 30.904 116.04 30.904C115.428 30.904 114.936 31.102 114.564 31.498C114.192 31.894 114.006 32.434 114.006 33.118V38.068C114.006 38.188 113.964 38.29 113.88 38.374C113.808 38.458 113.706 38.5 113.574 38.5H111.972ZM127.02 42.46C125.952 42.46 125.088 42.28 124.428 41.92C123.768 41.572 123.3 41.17 123.024 40.714C122.748 40.258 122.61 39.868 122.61 39.544C122.61 39.424 122.652 39.322 122.736 39.238C122.82 39.166 122.922 39.13 123.042 39.13H124.644C124.752 39.13 124.842 39.154 124.914 39.202C124.998 39.262 125.064 39.364 125.112 39.508C125.244 39.82 125.442 40.084 125.706 40.3C125.97 40.528 126.378 40.642 126.93 40.642C127.65 40.642 128.178 40.48 128.514 40.156C128.85 39.844 129.018 39.292 129.018 38.5V37.276C128.37 38.044 127.452 38.428 126.264 38.428C125.016 38.428 124.074 38.05 123.438 37.294C122.814 36.538 122.478 35.506 122.43 34.198L122.412 33.712L122.43 33.226C122.478 31.942 122.82 30.91 123.456 30.13C124.092 29.35 125.028 28.96 126.264 28.96C126.9 28.96 127.458 29.08 127.938 29.32C128.418 29.56 128.814 29.884 129.126 30.292V29.59C129.126 29.458 129.168 29.35 129.252 29.266C129.348 29.182 129.456 29.14 129.576 29.14H131.052C131.172 29.14 131.274 29.182 131.358 29.266C131.442 29.35 131.484 29.458 131.484 29.59L131.502 38.266C131.502 39.598 131.13 40.63 130.386 41.362C129.642 42.094 128.52 42.46 127.02 42.46ZM126.948 36.52C127.62 36.52 128.124 36.304 128.46 35.872C128.796 35.44 128.982 34.912 129.018 34.288C129.03 34.192 129.036 34 129.036 33.712C129.036 33.424 129.03 33.232 129.018 33.136C128.982 32.512 128.796 31.984 128.46 31.552C128.124 31.12 127.62 30.904 126.948 30.904C125.652 30.904 124.968 31.696 124.896 33.28L124.878 33.712C124.878 35.584 125.568 36.52 126.948 36.52Z" fill="white"/>
<circle cx="173" cy="32" r="16" fill="white"/>
<path d="M171.5 37C171.368 37.0008 171.238 36.9755 171.116 36.9258C170.994 36.876 170.883 36.8027 170.79 36.71C170.696 36.617 170.622 36.5064 170.571 36.3846C170.52 36.2627 170.494 36.132 170.494 36C170.494 35.868 170.52 35.7373 170.571 35.6154C170.622 35.4936 170.696 35.383 170.79 35.29L174.1 32L170.92 28.69C170.734 28.5026 170.629 28.2492 170.629 27.985C170.629 27.7208 170.734 27.4674 170.92 27.28C171.013 27.1863 171.124 27.1119 171.245 27.0611C171.367 27.0103 171.498 26.9842 171.63 26.9842C171.762 26.9842 171.893 27.0103 172.015 27.0611C172.136 27.1119 172.247 27.1863 172.34 27.28L176.2 31.28C176.383 31.4669 176.486 31.7182 176.486 31.98C176.486 32.2418 176.383 32.4931 176.2 32.68L172.2 36.68C172.11 36.7769 172.002 36.8551 171.882 36.91C171.762 36.965 171.632 36.9955 171.5 37Z" fill="#3671E9"/>
</svg>
