<svg width="365" height="40" viewBox="0 0 365 40" fill="none" xmlns="http://www.w3.org/2000/svg">
<rect width="365" height="40" rx="20" fill="white" fill-opacity="0.1"/>
<path d="M134.76 27C134.653 27 134.568 26.968 134.504 26.904C134.44 26.8293 134.408 26.7387 134.408 26.632V16.184C134.408 16.0667 134.44 15.976 134.504 15.912C134.568 15.8373 134.653 15.8 134.76 15.8H141.256C141.373 15.8 141.464 15.8373 141.528 15.912C141.603 15.976 141.64 16.0667 141.64 16.184V16.776C141.64 16.8827 141.603 16.9733 141.528 17.048C141.464 17.112 141.373 17.144 141.256 17.144H135.896V20.936H140.936C141.053 20.936 141.144 20.9733 141.208 21.048C141.283 21.112 141.32 21.1973 141.32 21.304V21.912C141.32 22.0187 141.283 22.1093 141.208 22.184C141.133 22.248 141.043 22.28 140.936 22.28H135.896V26.632C135.896 26.7387 135.859 26.8293 135.784 26.904C135.709 26.968 135.619 27 135.512 27H134.76ZM146.892 27.16C145.719 27.16 144.812 26.8293 144.172 26.168C143.543 25.5067 143.207 24.6267 143.164 23.528L143.148 22.84L143.164 22.152C143.207 21.0533 143.548 20.1733 144.188 19.512C144.839 18.8507 145.74 18.52 146.892 18.52C148.044 18.52 148.94 18.8507 149.58 19.512C150.231 20.1733 150.578 21.0533 150.62 22.152C150.642 22.3867 150.652 22.616 150.652 22.84C150.652 23.064 150.642 23.2933 150.62 23.528C150.578 24.6267 150.236 25.5067 149.596 26.168C148.967 26.8293 148.066 27.16 146.892 27.16ZM146.892 25.96C147.575 25.96 148.114 25.7467 148.508 25.32C148.914 24.8827 149.132 24.2587 149.164 23.448C149.175 23.3413 149.18 23.1387 149.18 22.84C149.18 22.5413 149.175 22.3387 149.164 22.232C149.132 21.4213 148.914 20.8027 148.508 20.376C148.114 19.9387 147.575 19.72 146.892 19.72C146.21 19.72 145.666 19.9387 145.26 20.376C144.866 20.8027 144.652 21.4213 144.62 22.232L144.604 22.84L144.62 23.448C144.652 24.2587 144.866 24.8827 145.26 25.32C145.666 25.7467 146.21 25.96 146.892 25.96ZM153.2 27C153.094 27 153.003 26.968 152.928 26.904C152.864 26.8293 152.832 26.7387 152.832 26.632V19.064C152.832 18.9573 152.864 18.8667 152.928 18.792C153.003 18.7173 153.094 18.68 153.2 18.68H153.872C153.99 18.68 154.08 18.7173 154.144 18.792C154.219 18.856 154.256 18.9467 154.256 19.064V19.768C154.694 19.0427 155.435 18.68 156.48 18.68H157.104C157.222 18.68 157.312 18.712 157.377 18.776C157.44 18.84 157.472 18.9307 157.472 19.048V19.64C157.472 19.7467 157.44 19.8373 157.377 19.912C157.312 19.976 157.222 20.008 157.104 20.008H156.193C155.606 20.008 155.142 20.1787 154.8 20.52C154.47 20.8613 154.304 21.3253 154.304 21.912V26.632C154.304 26.7387 154.267 26.8293 154.192 26.904C154.118 26.968 154.027 27 153.92 27H153.2ZM165.587 27C163.934 27 163.107 26.0667 163.107 24.2V19.912H161.843C161.736 19.912 161.651 19.88 161.587 19.816C161.523 19.752 161.491 19.6667 161.491 19.56V19.048C161.491 18.9413 161.523 18.856 161.587 18.792C161.651 18.7173 161.736 18.68 161.843 18.68H163.107V16.008C163.107 15.9013 163.139 15.816 163.203 15.752C163.267 15.6773 163.352 15.64 163.459 15.64H164.163C164.27 15.64 164.355 15.6773 164.419 15.752C164.494 15.816 164.531 15.9013 164.531 16.008V18.68H166.515C166.622 18.68 166.707 18.7173 166.771 18.792C166.846 18.856 166.883 18.9413 166.883 19.048V19.56C166.883 19.6667 166.846 19.752 166.771 19.816C166.707 19.88 166.622 19.912 166.515 19.912H164.531V24.088C164.531 24.632 164.616 25.0427 164.787 25.32C164.968 25.5973 165.272 25.736 165.699 25.736H166.675C166.782 25.736 166.867 25.7733 166.931 25.848C166.995 25.912 167.027 25.9973 167.027 26.104V26.632C167.027 26.7387 166.995 26.8293 166.931 26.904C166.867 26.968 166.782 27 166.675 27H165.587ZM169.134 27C169.027 27 168.937 26.968 168.862 26.904C168.798 26.8293 168.766 26.7387 168.766 26.632V16.008C168.766 15.8907 168.798 15.8 168.862 15.736C168.937 15.672 169.027 15.64 169.134 15.64H169.87C169.987 15.64 170.078 15.672 170.142 15.736C170.206 15.8 170.238 15.8907 170.238 16.008V19.736C170.547 19.3413 170.91 19.0427 171.326 18.84C171.753 18.6267 172.275 18.52 172.894 18.52C173.918 18.52 174.713 18.8507 175.278 19.512C175.854 20.1627 176.142 21.0267 176.142 22.104V26.632C176.142 26.7387 176.105 26.8293 176.03 26.904C175.966 26.968 175.881 27 175.774 27H175.022C174.915 27 174.825 26.968 174.75 26.904C174.686 26.8293 174.654 26.7387 174.654 26.632V22.2C174.654 21.432 174.467 20.8347 174.094 20.408C173.721 19.9813 173.182 19.768 172.478 19.768C171.795 19.768 171.251 19.9867 170.846 20.424C170.441 20.8507 170.238 21.4427 170.238 22.2V26.632C170.238 26.7387 170.201 26.8293 170.126 26.904C170.062 26.968 169.977 27 169.87 27H169.134ZM181.925 27.16C180.837 27.16 179.967 26.824 179.317 26.152C178.666 25.4693 178.309 24.5413 178.245 23.368L178.229 22.824L178.245 22.296C178.309 21.144 178.666 20.2267 179.317 19.544C179.967 18.8613 180.837 18.52 181.925 18.52C183.098 18.52 184.005 18.8933 184.645 19.64C185.295 20.3867 185.621 21.4 185.621 22.68V22.968C185.621 23.0747 185.583 23.1653 185.509 23.24C185.445 23.304 185.359 23.336 185.253 23.336H179.701V23.48C179.733 24.1733 179.946 24.7653 180.341 25.256C180.735 25.7467 181.258 25.992 181.909 25.992C182.41 25.992 182.815 25.896 183.125 25.704C183.445 25.5013 183.685 25.2933 183.845 25.08C183.941 24.952 184.015 24.8773 184.069 24.856C184.122 24.824 184.213 24.808 184.341 24.808H185.045C185.141 24.808 185.221 24.8347 185.285 24.888C185.359 24.9413 185.397 25.0107 185.397 25.096C185.397 25.3307 185.253 25.6133 184.965 25.944C184.677 26.2747 184.266 26.5627 183.733 26.808C183.21 27.0427 182.607 27.16 181.925 27.16ZM184.165 22.248V22.2C184.165 21.4533 183.962 20.8453 183.557 20.376C183.151 19.9067 182.607 19.672 181.925 19.672C181.231 19.672 180.687 19.9067 180.293 20.376C179.898 20.8453 179.701 21.4533 179.701 22.2V22.248H184.165ZM192.384 27C192.277 27 192.192 26.968 192.128 26.904C192.064 26.8293 192.032 26.7387 192.032 26.632V16.184C192.032 16.0667 192.064 15.976 192.128 15.912C192.192 15.8373 192.277 15.8 192.384 15.8H196.752C197.882 15.8 198.736 16.072 199.312 16.616C199.888 17.16 200.176 17.8693 200.176 18.744C200.176 19.3413 200.037 19.8427 199.76 20.248C199.482 20.6427 199.157 20.9307 198.784 21.112C199.242 21.336 199.626 21.6827 199.936 22.152C200.245 22.6213 200.4 23.16 200.4 23.768C200.4 24.3653 200.261 24.9093 199.984 25.4C199.717 25.8907 199.317 26.28 198.784 26.568C198.25 26.856 197.616 27 196.88 27H192.384ZM196.512 20.552C197.205 20.552 197.733 20.3973 198.096 20.088C198.458 19.768 198.64 19.3253 198.64 18.76C198.64 18.2053 198.458 17.784 198.096 17.496C197.744 17.208 197.216 17.064 196.512 17.064H193.536V20.552H196.512ZM196.672 25.736C197.354 25.736 197.888 25.5547 198.272 25.192C198.666 24.8187 198.864 24.344 198.864 23.768C198.864 23.1813 198.666 22.7067 198.272 22.344C197.888 21.9813 197.354 21.8 196.672 21.8H193.536V25.736H196.672ZM203.04 27C202.933 27 202.842 26.968 202.768 26.904C202.704 26.8293 202.672 26.7387 202.672 26.632V16.008C202.672 15.8907 202.704 15.8 202.768 15.736C202.842 15.672 202.933 15.64 203.04 15.64H203.744C203.85 15.64 203.936 15.6773 204 15.752C204.074 15.816 204.112 15.9013 204.112 16.008V26.632C204.112 26.7387 204.074 26.8293 204 26.904C203.936 26.968 203.85 27 203.744 27H203.04ZM208.979 27.16C208.456 27.16 207.971 27.0533 207.523 26.84C207.086 26.6267 206.734 26.3387 206.467 25.976C206.211 25.6027 206.083 25.192 206.083 24.744C206.083 24.04 206.371 23.464 206.947 23.016C207.523 22.568 208.307 22.2693 209.299 22.12L211.699 21.784V21.32C211.699 20.2213 211.064 19.672 209.795 19.672C209.304 19.672 208.91 19.7733 208.611 19.976C208.312 20.168 208.094 20.3973 207.955 20.664C207.912 20.7707 207.864 20.8453 207.811 20.888C207.768 20.92 207.704 20.936 207.619 20.936H206.995C206.899 20.936 206.814 20.904 206.739 20.84C206.675 20.7653 206.643 20.68 206.643 20.584C206.643 20.3387 206.755 20.056 206.979 19.736C207.214 19.4053 207.571 19.1227 208.051 18.888C208.531 18.6427 209.118 18.52 209.811 18.52C211.006 18.52 211.859 18.7973 212.371 19.352C212.894 19.9067 213.155 20.6 213.155 21.432V26.632C213.155 26.7387 213.118 26.8293 213.043 26.904C212.979 26.968 212.894 27 212.787 27H212.083C211.976 27 211.891 26.968 211.827 26.904C211.763 26.8293 211.731 26.7387 211.731 26.632V25.928C211.496 26.28 211.155 26.5733 210.707 26.808C210.259 27.0427 209.683 27.16 208.979 27.16ZM209.299 25.992C210.003 25.992 210.579 25.7627 211.027 25.304C211.475 24.8453 211.699 24.1787 211.699 23.304V22.856L209.827 23.128C209.059 23.2347 208.478 23.416 208.083 23.672C207.688 23.928 207.491 24.248 207.491 24.632C207.491 25.0693 207.667 25.4053 208.019 25.64C208.382 25.8747 208.808 25.992 209.299 25.992ZM218.96 27.16C217.819 27.16 216.928 26.84 216.288 26.2C215.648 25.5493 215.312 24.6427 215.28 23.48L215.264 22.84L215.28 22.2C215.312 21.0373 215.648 20.136 216.288 19.496C216.928 18.8453 217.819 18.52 218.96 18.52C219.728 18.52 220.373 18.6587 220.896 18.936C221.429 19.2027 221.824 19.5387 222.08 19.944C222.347 20.3493 222.491 20.7547 222.512 21.16C222.523 21.256 222.485 21.3413 222.4 21.416C222.325 21.4907 222.24 21.528 222.144 21.528H221.44C221.333 21.528 221.253 21.5067 221.2 21.464C221.147 21.4107 221.093 21.32 221.04 21.192C220.848 20.6693 220.581 20.3013 220.24 20.088C219.909 19.864 219.488 19.752 218.976 19.752C218.304 19.752 217.771 19.96 217.376 20.376C216.981 20.792 216.768 21.4267 216.736 22.28L216.72 22.84L216.736 23.4C216.768 24.2533 216.981 24.888 217.376 25.304C217.771 25.72 218.304 25.928 218.976 25.928C219.499 25.928 219.925 25.8213 220.256 25.608C220.587 25.384 220.848 25.0107 221.04 24.488C221.093 24.36 221.147 24.2747 221.2 24.232C221.253 24.1787 221.333 24.152 221.44 24.152H222.144C222.24 24.152 222.325 24.1893 222.4 24.264C222.485 24.3387 222.523 24.424 222.512 24.52C222.491 24.9147 222.347 25.3147 222.08 25.72C221.824 26.1253 221.429 26.4667 220.896 26.744C220.373 27.0213 219.728 27.16 218.96 27.16ZM224.973 27C224.866 27 224.775 26.968 224.701 26.904C224.637 26.8293 224.605 26.7387 224.605 26.632V16.008C224.605 15.8907 224.637 15.8 224.701 15.736C224.775 15.672 224.866 15.64 224.973 15.64H225.661C225.767 15.64 225.853 15.6773 225.917 15.752C225.991 15.816 226.029 15.9013 226.029 16.008V21.592L229.229 18.952C229.389 18.8347 229.501 18.76 229.565 18.728C229.629 18.696 229.73 18.68 229.869 18.68H230.669C230.765 18.68 230.839 18.712 230.893 18.776C230.957 18.8293 230.989 18.9093 230.989 19.016C230.989 19.112 230.93 19.2133 230.813 19.32L227.069 22.392L231.213 26.36C231.33 26.4773 231.389 26.5787 231.389 26.664C231.389 26.76 231.357 26.84 231.293 26.904C231.239 26.968 231.165 27 231.069 27H230.285C230.125 27 230.007 26.984 229.933 26.952C229.869 26.92 229.773 26.8453 229.645 26.728L226.029 23.304V26.632C226.029 26.7387 225.991 26.8293 225.917 26.904C225.853 26.968 225.767 27 225.661 27H224.973ZM237.453 27C237.346 27 237.261 26.968 237.197 26.904C237.133 26.8293 237.101 26.7387 237.101 26.632V16.184C237.101 16.0667 237.133 15.976 237.197 15.912C237.261 15.8373 237.346 15.8 237.453 15.8H243.949C244.066 15.8 244.157 15.8373 244.221 15.912C244.296 15.976 244.333 16.0667 244.333 16.184V16.776C244.333 16.8827 244.296 16.9733 244.221 17.048C244.157 17.112 244.066 17.144 243.949 17.144H238.589V20.936H243.629C243.746 20.936 243.837 20.9733 243.901 21.048C243.976 21.112 244.013 21.1973 244.013 21.304V21.912C244.013 22.0187 243.976 22.1093 243.901 22.184C243.826 22.248 243.736 22.28 243.629 22.28H238.589V26.632C238.589 26.7387 238.552 26.8293 238.477 26.904C238.402 26.968 238.312 27 238.205 27H237.453ZM246.531 27C246.424 27 246.333 26.968 246.259 26.904C246.195 26.8293 246.163 26.7387 246.163 26.632V19.064C246.163 18.9573 246.195 18.8667 246.259 18.792C246.333 18.7173 246.424 18.68 246.531 18.68H247.203C247.32 18.68 247.411 18.7173 247.475 18.792C247.549 18.856 247.587 18.9467 247.587 19.064V19.768C248.024 19.0427 248.765 18.68 249.811 18.68H250.435C250.552 18.68 250.643 18.712 250.707 18.776C250.771 18.84 250.803 18.9307 250.803 19.048V19.64C250.803 19.7467 250.771 19.8373 250.707 19.912C250.643 19.976 250.552 20.008 250.435 20.008H249.523C248.936 20.008 248.472 20.1787 248.131 20.52C247.8 20.8613 247.635 21.3253 247.635 21.912V26.632C247.635 26.7387 247.597 26.8293 247.523 26.904C247.448 26.968 247.357 27 247.251 27H246.531ZM252.578 17.112C252.471 17.112 252.381 17.08 252.306 17.016C252.242 16.9413 252.21 16.8507 252.21 16.744V15.912C252.21 15.8053 252.242 15.7147 252.306 15.64C252.381 15.5653 252.471 15.528 252.578 15.528H253.522C253.629 15.528 253.719 15.5653 253.794 15.64C253.869 15.7147 253.906 15.8053 253.906 15.912V16.744C253.906 16.8507 253.869 16.9413 253.794 17.016C253.719 17.08 253.629 17.112 253.522 17.112H252.578ZM252.706 27C252.599 27 252.509 26.968 252.434 26.904C252.37 26.8293 252.338 26.7387 252.338 26.632V19.048C252.338 18.9413 252.37 18.856 252.434 18.792C252.509 18.7173 252.599 18.68 252.706 18.68H253.41C253.517 18.68 253.602 18.7173 253.666 18.792C253.741 18.856 253.778 18.9413 253.778 19.048V26.632C253.778 26.7387 253.741 26.8293 253.666 26.904C253.602 26.968 253.517 27 253.41 27H252.706ZM259.382 27.16C258.262 27.16 257.419 26.7973 256.854 26.072C256.299 25.3467 256.001 24.4293 255.958 23.32L255.942 22.84L255.958 22.36C256.001 21.2613 256.305 20.3493 256.87 19.624C257.435 18.888 258.273 18.52 259.382 18.52C260.491 18.52 261.355 18.9147 261.974 19.704V16.008C261.974 15.9013 262.006 15.816 262.07 15.752C262.145 15.6773 262.235 15.64 262.342 15.64H263.062C263.169 15.64 263.254 15.6773 263.318 15.752C263.393 15.816 263.43 15.9013 263.43 16.008V26.632C263.43 26.7387 263.393 26.8293 263.318 26.904C263.254 26.968 263.169 27 263.062 27H262.374C262.267 27 262.182 26.968 262.118 26.904C262.054 26.8293 262.022 26.7387 262.022 26.632V25.944C261.414 26.7547 260.534 27.16 259.382 27.16ZM259.686 25.912C260.433 25.912 260.993 25.6667 261.366 25.176C261.739 24.6747 261.942 24.0827 261.974 23.4C261.985 23.2827 261.99 23.08 261.99 22.792C261.99 22.4933 261.985 22.2853 261.974 22.168C261.953 21.5173 261.745 20.9573 261.35 20.488C260.966 20.008 260.411 19.768 259.686 19.768C258.918 19.768 258.358 20.008 258.006 20.488C257.654 20.968 257.462 21.5973 257.43 22.376L257.414 22.84C257.414 24.888 258.171 25.912 259.686 25.912ZM268.306 27.16C267.783 27.16 267.298 27.0533 266.85 26.84C266.413 26.6267 266.061 26.3387 265.794 25.976C265.538 25.6027 265.41 25.192 265.41 24.744C265.41 24.04 265.698 23.464 266.274 23.016C266.85 22.568 267.634 22.2693 268.626 22.12L271.026 21.784V21.32C271.026 20.2213 270.391 19.672 269.122 19.672C268.631 19.672 268.237 19.7733 267.938 19.976C267.639 20.168 267.421 20.3973 267.282 20.664C267.239 20.7707 267.191 20.8453 267.138 20.888C267.095 20.92 267.031 20.936 266.946 20.936H266.322C266.226 20.936 266.141 20.904 266.066 20.84C266.002 20.7653 265.97 20.68 265.97 20.584C265.97 20.3387 266.082 20.056 266.306 19.736C266.541 19.4053 266.898 19.1227 267.378 18.888C267.858 18.6427 268.445 18.52 269.138 18.52C270.333 18.52 271.186 18.7973 271.698 19.352C272.221 19.9067 272.482 20.6 272.482 21.432V26.632C272.482 26.7387 272.445 26.8293 272.37 26.904C272.306 26.968 272.221 27 272.114 27H271.41C271.303 27 271.218 26.968 271.154 26.904C271.09 26.8293 271.058 26.7387 271.058 26.632V25.928C270.823 26.28 270.482 26.5733 270.034 26.808C269.586 27.0427 269.01 27.16 268.306 27.16ZM268.626 25.992C269.33 25.992 269.906 25.7627 270.354 25.304C270.802 24.8453 271.026 24.1787 271.026 23.304V22.856L269.154 23.128C268.386 23.2347 267.805 23.416 267.41 23.672C267.015 23.928 266.818 24.248 266.818 24.632C266.818 25.0693 266.994 25.4053 267.346 25.64C267.709 25.8747 268.135 25.992 268.626 25.992ZM276.243 30.04C276.147 30.04 276.067 30.008 276.003 29.944C275.939 29.88 275.907 29.8053 275.907 29.72C275.907 29.688 275.934 29.592 275.987 29.432L277.235 26.504L274.179 19.288C274.115 19.16 274.083 19.0693 274.083 19.016C274.094 18.92 274.131 18.84 274.195 18.776C274.259 18.712 274.334 18.68 274.419 18.68H275.155C275.326 18.68 275.454 18.7653 275.539 18.936L278.003 24.824L280.531 18.936C280.616 18.7653 280.744 18.68 280.915 18.68H281.635C281.72 18.68 281.795 18.712 281.859 18.776C281.923 18.84 281.955 18.9147 281.955 19C281.955 19.0747 281.928 19.1707 281.875 19.288L277.347 29.784C277.294 29.8693 277.235 29.9333 277.171 29.976C277.118 30.0187 277.043 30.04 276.947 30.04H276.243ZM289.221 27C289.072 27 288.96 26.968 288.885 26.904C288.81 26.84 288.752 26.7387 288.709 26.6L286.437 19.176L286.405 19.016C286.405 18.92 286.437 18.84 286.501 18.776C286.565 18.712 286.645 18.68 286.741 18.68H287.397C287.504 18.68 287.589 18.712 287.653 18.776C287.728 18.8293 287.77 18.8827 287.781 18.936L289.589 25.048L291.509 19.016C291.53 18.9307 291.578 18.856 291.653 18.792C291.728 18.7173 291.829 18.68 291.957 18.68H292.469C292.597 18.68 292.698 18.7173 292.773 18.792C292.848 18.856 292.896 18.9307 292.917 19.016L294.837 25.048L296.645 18.936C296.656 18.8827 296.693 18.8293 296.757 18.776C296.832 18.712 296.922 18.68 297.029 18.68H297.685C297.781 18.68 297.861 18.712 297.925 18.776C297.989 18.84 298.021 18.92 298.021 19.016L297.989 19.176L295.717 26.6C295.674 26.7387 295.616 26.84 295.541 26.904C295.466 26.968 295.354 27 295.205 27H294.629C294.352 27 294.17 26.8667 294.085 26.6L292.213 20.808L290.341 26.6C290.256 26.8667 290.074 27 289.797 27H289.221ZM303.047 27.16C301.959 27.16 301.09 26.824 300.439 26.152C299.789 25.4693 299.431 24.5413 299.367 23.368L299.351 22.824L299.367 22.296C299.431 21.144 299.789 20.2267 300.439 19.544C301.09 18.8613 301.959 18.52 303.047 18.52C304.221 18.52 305.127 18.8933 305.767 19.64C306.418 20.3867 306.743 21.4 306.743 22.68V22.968C306.743 23.0747 306.706 23.1653 306.631 23.24C306.567 23.304 306.482 23.336 306.375 23.336H300.823V23.48C300.855 24.1733 301.069 24.7653 301.463 25.256C301.858 25.7467 302.381 25.992 303.031 25.992C303.533 25.992 303.938 25.896 304.247 25.704C304.567 25.5013 304.807 25.2933 304.967 25.08C305.063 24.952 305.138 24.8773 305.191 24.856C305.245 24.824 305.335 24.808 305.463 24.808H306.167C306.263 24.808 306.343 24.8347 306.407 24.888C306.482 24.9413 306.519 25.0107 306.519 25.096C306.519 25.3307 306.375 25.6133 306.087 25.944C305.799 26.2747 305.389 26.5627 304.855 26.808C304.333 27.0427 303.73 27.16 303.047 27.16ZM305.287 22.248V22.2C305.287 21.4533 305.085 20.8453 304.679 20.376C304.274 19.9067 303.73 19.672 303.047 19.672C302.354 19.672 301.81 19.9067 301.415 20.376C301.021 20.8453 300.823 21.4533 300.823 22.2V22.248H305.287ZM312.145 27.16C311.057 27.16 310.187 26.824 309.537 26.152C308.886 25.4693 308.529 24.5413 308.465 23.368L308.449 22.824L308.465 22.296C308.529 21.144 308.886 20.2267 309.537 19.544C310.187 18.8613 311.057 18.52 312.145 18.52C313.318 18.52 314.225 18.8933 314.865 19.64C315.515 20.3867 315.841 21.4 315.841 22.68V22.968C315.841 23.0747 315.803 23.1653 315.729 23.24C315.665 23.304 315.579 23.336 315.473 23.336H309.921V23.48C309.953 24.1733 310.166 24.7653 310.561 25.256C310.955 25.7467 311.478 25.992 312.129 25.992C312.63 25.992 313.035 25.896 313.345 25.704C313.665 25.5013 313.905 25.2933 314.065 25.08C314.161 24.952 314.235 24.8773 314.289 24.856C314.342 24.824 314.433 24.808 314.561 24.808H315.265C315.361 24.808 315.441 24.8347 315.505 24.888C315.579 24.9413 315.617 25.0107 315.617 25.096C315.617 25.3307 315.473 25.6133 315.185 25.944C314.897 26.2747 314.486 26.5627 313.953 26.808C313.43 27.0427 312.827 27.16 312.145 27.16ZM314.385 22.248V22.2C314.385 21.4533 314.182 20.8453 313.777 20.376C313.371 19.9067 312.827 19.672 312.145 19.672C311.451 19.672 310.907 19.9067 310.513 20.376C310.118 20.8453 309.921 21.4533 309.921 22.2V22.248H314.385ZM318.33 27C318.224 27 318.133 26.968 318.058 26.904C317.994 26.8293 317.962 26.7387 317.962 26.632V16.008C317.962 15.8907 317.994 15.8 318.058 15.736C318.133 15.672 318.224 15.64 318.33 15.64H319.018C319.125 15.64 319.21 15.6773 319.274 15.752C319.349 15.816 319.386 15.9013 319.386 16.008V21.592L322.586 18.952C322.746 18.8347 322.858 18.76 322.922 18.728C322.986 18.696 323.088 18.68 323.226 18.68H324.026C324.122 18.68 324.197 18.712 324.25 18.776C324.314 18.8293 324.346 18.9093 324.346 19.016C324.346 19.112 324.288 19.2133 324.17 19.32L320.426 22.392L324.57 26.36C324.688 26.4773 324.746 26.5787 324.746 26.664C324.746 26.76 324.714 26.84 324.65 26.904C324.597 26.968 324.522 27 324.426 27H323.642C323.482 27 323.365 26.984 323.29 26.952C323.226 26.92 323.13 26.8453 323.002 26.728L319.386 23.304V26.632C319.386 26.7387 319.349 26.8293 319.274 26.904C319.21 26.968 319.125 27 319.018 27H318.33ZM329.215 27.16C328.127 27.16 327.257 26.824 326.607 26.152C325.956 25.4693 325.599 24.5413 325.535 23.368L325.519 22.824L325.535 22.296C325.599 21.144 325.956 20.2267 326.607 19.544C327.257 18.8613 328.127 18.52 329.215 18.52C330.388 18.52 331.295 18.8933 331.935 19.64C332.585 20.3867 332.911 21.4 332.911 22.68V22.968C332.911 23.0747 332.873 23.1653 332.799 23.24C332.735 23.304 332.649 23.336 332.543 23.336H326.991V23.48C327.023 24.1733 327.236 24.7653 327.631 25.256C328.025 25.7467 328.548 25.992 329.199 25.992C329.7 25.992 330.105 25.896 330.415 25.704C330.735 25.5013 330.975 25.2933 331.135 25.08C331.231 24.952 331.305 24.8773 331.359 24.856C331.412 24.824 331.503 24.808 331.631 24.808H332.335C332.431 24.808 332.511 24.8347 332.575 24.888C332.649 24.9413 332.687 25.0107 332.687 25.096C332.687 25.3307 332.543 25.6133 332.255 25.944C331.967 26.2747 331.556 26.5627 331.023 26.808C330.5 27.0427 329.897 27.16 329.215 27.16ZM331.455 22.248V22.2C331.455 21.4533 331.252 20.8453 330.847 20.376C330.441 19.9067 329.897 19.672 329.215 19.672C328.521 19.672 327.977 19.9067 327.583 20.376C327.188 20.8453 326.991 21.4533 326.991 22.2V22.248H331.455ZM335.384 27C335.278 27 335.187 26.968 335.112 26.904C335.048 26.8293 335.016 26.7387 335.016 26.632V19.048C335.016 18.9413 335.048 18.856 335.112 18.792C335.187 18.7173 335.278 18.68 335.384 18.68H336.072C336.19 18.68 336.28 18.712 336.344 18.776C336.408 18.84 336.44 18.9307 336.44 19.048V19.752C336.76 19.3573 337.128 19.0533 337.544 18.84C337.971 18.6267 338.499 18.52 339.128 18.52C340.152 18.52 340.947 18.8507 341.512 19.512C342.078 20.1627 342.36 21.0267 342.36 22.104V26.632C342.36 26.7387 342.323 26.8293 342.248 26.904C342.184 26.968 342.099 27 341.992 27H341.256C341.15 27 341.059 26.968 340.984 26.904C340.92 26.8293 340.888 26.7387 340.888 26.632V22.2C340.888 21.432 340.702 20.8347 340.328 20.408C339.955 19.9813 339.422 19.768 338.728 19.768C338.046 19.768 337.502 19.9867 337.096 20.424C336.691 20.8507 336.488 21.4427 336.488 22.2V26.632C336.488 26.7387 336.451 26.8293 336.376 26.904C336.312 26.968 336.227 27 336.12 27H335.384ZM347.873 27.16C346.753 27.16 345.91 26.7973 345.345 26.072C344.79 25.3467 344.491 24.4293 344.449 23.32L344.433 22.84L344.449 22.36C344.491 21.2613 344.795 20.3493 345.361 19.624C345.926 18.888 346.763 18.52 347.873 18.52C348.982 18.52 349.846 18.9147 350.465 19.704V16.008C350.465 15.9013 350.497 15.816 350.561 15.752C350.635 15.6773 350.726 15.64 350.833 15.64H351.553C351.659 15.64 351.745 15.6773 351.809 15.752C351.883 15.816 351.921 15.9013 351.921 16.008V26.632C351.921 26.7387 351.883 26.8293 351.809 26.904C351.745 26.968 351.659 27 351.553 27H350.865C350.758 27 350.673 26.968 350.609 26.904C350.545 26.8293 350.513 26.7387 350.513 26.632V25.944C349.905 26.7547 349.025 27.16 347.873 27.16ZM348.177 25.912C348.923 25.912 349.483 25.6667 349.857 25.176C350.23 24.6747 350.433 24.0827 350.465 23.4C350.475 23.2827 350.481 23.08 350.481 22.792C350.481 22.4933 350.475 22.2853 350.465 22.168C350.443 21.5173 350.235 20.9573 349.841 20.488C349.457 20.008 348.902 19.768 348.177 19.768C347.409 19.768 346.849 20.008 346.497 20.488C346.145 20.968 345.953 21.5973 345.921 22.376L345.905 22.84C345.905 24.888 346.662 25.912 348.177 25.912Z" fill="white"/>
<rect x="4" y="4" width="113" height="32" rx="16" fill="white"/>
<path d="M22.32 25C22.224 25 22.144 24.968 22.08 24.904C22.016 24.8293 21.984 24.744 21.984 24.648C21.984 24.616 21.9947 24.568 22.016 24.504L25.856 15.72H20.848C20.7413 15.72 20.6507 15.6827 20.576 15.608C20.5013 15.5333 20.464 15.4427 20.464 15.336V14.2C20.464 14.0827 20.496 13.9867 20.56 13.912C20.6347 13.8373 20.7307 13.8 20.848 13.8H27.888C28.0053 13.8 28.1013 13.8373 28.176 13.912C28.2507 13.9867 28.288 14.0827 28.288 14.2V15.208C28.288 15.432 28.2347 15.6613 28.128 15.896L24.32 24.616C24.256 24.7333 24.1867 24.8293 24.112 24.904C24.0373 24.968 23.936 25 23.808 25H22.32ZM34.2708 25.176C33.3854 25.176 32.6174 25.0267 31.9668 24.728C31.3268 24.4293 30.8414 24.0347 30.5108 23.544C30.1801 23.0533 30.0041 22.5253 29.9828 21.96V21.928C29.9828 21.8427 30.0148 21.7733 30.0788 21.72C30.1534 21.656 30.2334 21.624 30.3188 21.624H31.8388C32.0841 21.624 32.2388 21.7307 32.3028 21.944C32.4521 22.4133 32.6974 22.76 33.0388 22.984C33.3908 23.208 33.8014 23.32 34.2708 23.32C34.8681 23.32 35.3588 23.1387 35.7428 22.776C36.1374 22.4133 36.3348 21.912 36.3348 21.272C36.3348 20.696 36.1374 20.232 35.7428 19.88C35.3588 19.5173 34.8681 19.336 34.2708 19.336C33.9508 19.336 33.6894 19.3787 33.4868 19.464C33.2841 19.5493 33.0868 19.6667 32.8948 19.816C32.8734 19.8267 32.8254 19.8587 32.7508 19.912C32.6761 19.9653 32.6068 20.0027 32.5428 20.024C32.4894 20.0453 32.4308 20.056 32.3668 20.056H30.8628C30.7668 20.056 30.6814 20.024 30.6068 19.96C30.5428 19.8853 30.5108 19.8 30.5108 19.704L31.0548 14.248C31.0654 14.1093 31.1134 14.0027 31.1988 13.928C31.2948 13.8427 31.4068 13.8 31.5348 13.8H37.5508C37.6681 13.8 37.7588 13.8373 37.8228 13.912C37.8974 13.976 37.9348 14.0667 37.9348 14.184V15.272C37.9348 15.3787 37.8974 15.4693 37.8228 15.544C37.7588 15.6187 37.6681 15.656 37.5508 15.656H32.9268L32.6708 18.248C32.9161 18.088 33.1988 17.96 33.5188 17.864C33.8388 17.7573 34.2548 17.704 34.7668 17.704C35.4601 17.704 36.1001 17.8533 36.6868 18.152C37.2841 18.44 37.7588 18.8613 38.1108 19.416C38.4734 19.96 38.6548 20.5947 38.6548 21.32C38.6548 22.0987 38.4734 22.7813 38.1108 23.368C37.7481 23.944 37.2361 24.392 36.5748 24.712C35.9134 25.0213 35.1454 25.176 34.2708 25.176ZM43.0083 19.432C42.3043 19.432 41.7389 19.2453 41.3123 18.872C40.8963 18.4987 40.6669 17.992 40.6243 17.352C40.6136 17.1707 40.6083 16.9307 40.6083 16.632C40.6083 16.312 40.6136 16.056 40.6243 15.864C40.6669 15.2027 40.8909 14.68 41.2963 14.296C41.7016 13.912 42.2723 13.72 43.0083 13.72C43.7443 13.72 44.3149 13.912 44.7203 14.296C45.1363 14.68 45.3656 15.2027 45.4083 15.864C45.4296 16.248 45.4403 16.504 45.4403 16.632C45.4403 16.7493 45.4296 16.9893 45.4083 17.352C45.3656 17.992 45.1309 18.4987 44.7043 18.872C44.2883 19.2453 43.7229 19.432 43.0083 19.432ZM41.7123 25C41.6056 25 41.5203 24.9733 41.4563 24.92C41.3923 24.856 41.3603 24.776 41.3603 24.68C41.3603 24.616 41.3816 24.5573 41.4243 24.504L49.3123 14.104C49.3976 13.9973 49.4776 13.9227 49.5523 13.88C49.6269 13.8267 49.7336 13.8 49.8723 13.8H50.7203C50.8269 13.8 50.9069 13.832 50.9603 13.896C51.0243 13.9493 51.0563 14.024 51.0563 14.12C51.0563 14.184 51.0349 14.2427 50.9923 14.296L43.1043 24.696C43.0189 24.8027 42.9389 24.8827 42.8643 24.936C42.7896 24.9787 42.6883 25 42.5603 25H41.7123ZM43.0083 18.232C43.3176 18.232 43.5416 18.1413 43.6803 17.96C43.8296 17.7787 43.9203 17.5493 43.9523 17.272C43.9736 16.9093 43.9843 16.6853 43.9843 16.6C43.9843 16.4827 43.9736 16.264 43.9523 15.944C43.9309 15.6667 43.8456 15.4373 43.6963 15.256C43.5469 15.064 43.3176 14.968 43.0083 14.968C42.7096 14.968 42.4856 15.064 42.3363 15.256C42.1869 15.4373 42.1016 15.6667 42.0803 15.944C42.0696 16.104 42.0643 16.3227 42.0643 16.6C42.0643 16.8667 42.0696 17.0907 42.0803 17.272C42.1016 17.5387 42.1816 17.768 42.3203 17.96C42.4696 18.1413 42.6989 18.232 43.0083 18.232ZM49.4083 25.096C48.7043 25.096 48.1389 24.904 47.7123 24.52C47.2963 24.1253 47.0669 23.6027 47.0243 22.952C47.0136 22.7707 47.0083 22.5307 47.0083 22.232C47.0083 21.9227 47.0136 21.672 47.0243 21.48C47.0669 20.8187 47.2909 20.296 47.6963 19.912C48.1016 19.528 48.6723 19.336 49.4083 19.336C50.1549 19.336 50.7309 19.528 51.1363 19.912C51.5416 20.296 51.7656 20.8187 51.8083 21.48C51.8296 21.864 51.8403 22.1147 51.8403 22.232C51.8403 22.3493 51.8296 22.5893 51.8083 22.952C51.7656 23.6027 51.5309 24.1253 51.1043 24.52C50.6883 24.904 50.1229 25.096 49.4083 25.096ZM49.4083 23.848C49.7283 23.848 49.9576 23.7573 50.0963 23.576C50.2456 23.384 50.3309 23.1547 50.3523 22.888C50.3736 22.5253 50.3843 22.296 50.3843 22.2C50.3843 22.0933 50.3736 21.88 50.3523 21.56C50.3309 21.2827 50.2456 21.0533 50.0963 20.872C49.9469 20.68 49.7176 20.584 49.4083 20.584C49.1096 20.584 48.8856 20.68 48.7363 20.872C48.5869 21.0533 48.5016 21.2827 48.4803 21.56C48.4696 21.72 48.4643 21.9333 48.4643 22.2C48.4643 22.4773 48.4696 22.7067 48.4803 22.888C48.5016 23.1547 48.5816 23.384 48.7203 23.576C48.8696 23.7573 49.0989 23.848 49.4083 23.848ZM62.5714 25.16C61.6114 25.16 60.79 25.016 60.1074 24.728C59.4247 24.44 58.9074 24.0613 58.5554 23.592C58.2034 23.1227 58.0167 22.6107 57.9954 22.056C57.9954 21.9707 58.0274 21.896 58.0914 21.832C58.1554 21.7573 58.2354 21.72 58.3314 21.72H59.7874C59.9047 21.72 60.0007 21.7467 60.0754 21.8C60.15 21.8533 60.2194 21.928 60.2834 22.024C60.39 22.3867 60.63 22.6907 61.0034 22.936C61.3874 23.1813 61.91 23.304 62.5714 23.304C63.318 23.304 63.878 23.1813 64.2514 22.936C64.6354 22.68 64.8274 22.3333 64.8274 21.896C64.8274 21.608 64.7314 21.368 64.5394 21.176C64.3474 20.984 64.054 20.8187 63.6594 20.68C63.2754 20.5307 62.6994 20.3547 61.9314 20.152C60.6727 19.8533 59.75 19.4587 59.1634 18.968C58.5767 18.4773 58.2834 17.7733 58.2834 16.856C58.2834 16.2373 58.454 15.688 58.7954 15.208C59.1367 14.7173 59.622 14.3333 60.2514 14.056C60.8914 13.7787 61.6327 13.64 62.4754 13.64C63.3607 13.64 64.1234 13.7947 64.7634 14.104C65.414 14.4133 65.9047 14.8027 66.2354 15.272C66.5767 15.7307 66.758 16.1893 66.7794 16.648C66.7794 16.7333 66.7474 16.8133 66.6834 16.888C66.6194 16.952 66.5394 16.984 66.4434 16.984H64.9234C64.6887 16.984 64.5287 16.888 64.4434 16.696C64.39 16.3547 64.182 16.072 63.8194 15.848C63.4567 15.6133 63.0087 15.496 62.4754 15.496C61.8887 15.496 61.4247 15.608 61.0834 15.832C60.7527 16.056 60.5874 16.3813 60.5874 16.808C60.5874 17.096 60.6727 17.336 60.8434 17.528C61.014 17.72 61.2807 17.8907 61.6434 18.04C62.006 18.1787 62.534 18.3387 63.2274 18.52C64.1767 18.7333 64.9287 18.9733 65.4834 19.24C66.0487 19.5067 66.4647 19.8427 66.7314 20.248C66.998 20.6533 67.1314 21.1707 67.1314 21.8C67.1314 22.4933 66.9394 23.096 66.5554 23.608C66.182 24.1093 65.6487 24.4933 64.9554 24.76C64.2727 25.0267 63.478 25.16 62.5714 25.16ZM68.7288 25C68.6328 25 68.5528 24.968 68.4888 24.904C68.4248 24.84 68.3928 24.76 68.3928 24.664L68.4248 24.52L72.2648 14.2C72.3714 13.9333 72.5634 13.8 72.8408 13.8H74.6008C74.8781 13.8 75.0701 13.9333 75.1768 14.2L79.0168 24.52L79.0488 24.664C79.0488 24.76 79.0114 24.84 78.9368 24.904C78.8728 24.968 78.7981 25 78.7128 25H77.2888C77.0648 25 76.9101 24.8987 76.8248 24.696L76.0888 22.76H71.3528L70.6168 24.696C70.5314 24.8987 70.3768 25 70.1528 25H68.7288ZM71.9128 20.904H75.5288L73.7208 15.976L71.9128 20.904ZM83.602 25C83.282 25 83.074 24.8507 82.978 24.552L79.554 14.28C79.5433 14.248 79.538 14.2 79.538 14.136C79.538 14.04 79.57 13.96 79.634 13.896C79.698 13.832 79.778 13.8 79.874 13.8H81.298C81.4367 13.8 81.5487 13.8373 81.634 13.912C81.7193 13.9867 81.778 14.0667 81.81 14.152L84.482 22.344L87.17 14.152C87.1913 14.0667 87.2447 13.9867 87.33 13.912C87.4153 13.8373 87.5273 13.8 87.666 13.8H89.106C89.1913 13.8 89.266 13.832 89.33 13.896C89.4047 13.96 89.442 14.04 89.442 14.136L89.41 14.28L86.002 24.552C85.8953 24.8507 85.6873 25 85.378 25H83.602ZM92.1589 25C92.0522 25 91.9615 24.9627 91.8869 24.888C91.8122 24.8133 91.7749 24.7227 91.7749 24.616V14.2C91.7749 14.0827 91.8069 13.9867 91.8709 13.912C91.9455 13.8373 92.0415 13.8 92.1589 13.8H99.2149C99.3322 13.8 99.4282 13.8373 99.5029 13.912C99.5775 13.9867 99.6149 14.0827 99.6149 14.2V15.272C99.6149 15.3893 99.5775 15.4853 99.5029 15.56C99.4282 15.624 99.3322 15.656 99.2149 15.656H93.9669V18.456H98.8629C98.9802 18.456 99.0762 18.4933 99.1509 18.568C99.2255 18.6427 99.2629 18.7387 99.2629 18.856V19.864C99.2629 19.9813 99.2255 20.0773 99.1509 20.152C99.0762 20.216 98.9802 20.248 98.8629 20.248H93.9669V23.144H99.3429C99.4602 23.144 99.5562 23.1813 99.6309 23.256C99.7055 23.32 99.7429 23.4107 99.7429 23.528V24.616C99.7429 24.7333 99.7055 24.8293 99.6309 24.904C99.5562 24.968 99.4602 25 99.3429 25H92.1589Z" fill="#0D0D2B"/>
</svg>
