<svg width="202" height="64" viewBox="0 0 202 64" fill="none" xmlns="http://www.w3.org/2000/svg">
<rect width="202" height="64" rx="32" fill="#3671E9"/>
<path d="M28.8297 38.5C28.7097 38.5 28.6077 38.458 28.5237 38.374C28.4397 38.29 28.3977 38.188 28.3977 38.068V28.15H25.0677C24.9477 28.15 24.8457 28.108 24.7617 28.024C24.6777 27.94 24.6357 27.832 24.6357 27.7V26.35C24.6357 26.218 24.6717 26.11 24.7437 26.026C24.8277 25.942 24.9357 25.9 25.0677 25.9H34.2657C34.3977 25.9 34.5057 25.942 34.5897 26.026C34.6737 26.11 34.7157 26.218 34.7157 26.35V27.7C34.7157 27.832 34.6737 27.94 34.5897 28.024C34.5057 28.108 34.3977 28.15 34.2657 28.15H30.9537V38.068C30.9537 38.188 30.9117 38.29 30.8277 38.374C30.7557 38.458 30.6537 38.5 30.5217 38.5H28.8297ZM35.5624 38.5C35.4424 38.5 35.3404 38.458 35.2564 38.374C35.1724 38.29 35.1304 38.188 35.1304 38.068V29.59C35.1304 29.458 35.1724 29.35 35.2564 29.266C35.3404 29.182 35.4424 29.14 35.5624 29.14H37.0384C37.1704 29.14 37.2784 29.182 37.3624 29.266C37.4464 29.35 37.4884 29.458 37.4884 29.59V30.328C38.0884 29.536 38.9524 29.14 40.0804 29.14H40.8364C40.9684 29.14 41.0704 29.182 41.1424 29.266C41.2264 29.338 41.2684 29.44 41.2684 29.572V30.886C41.2684 31.006 41.2264 31.108 41.1424 31.192C41.0704 31.276 40.9684 31.318 40.8364 31.318H39.4144C38.8504 31.318 38.4064 31.48 38.0824 31.804C37.7584 32.128 37.5964 32.572 37.5964 33.136V38.068C37.5964 38.188 37.5544 38.29 37.4704 38.374C37.3864 38.458 37.2844 38.5 37.1644 38.5H35.5624ZM44.3634 41.92C44.2674 41.92 44.1774 41.884 44.0934 41.812C44.0214 41.74 43.9854 41.656 43.9854 41.56C43.9854 41.476 44.0094 41.38 44.0574 41.272L45.4794 37.942L42.0234 29.788C41.9754 29.68 41.9514 29.596 41.9514 29.536C41.9634 29.428 42.0054 29.338 42.0774 29.266C42.1494 29.182 42.2394 29.14 42.3474 29.14H43.8414C44.0574 29.14 44.2134 29.254 44.3094 29.482L46.7034 35.35L49.1334 29.482C49.2534 29.254 49.4214 29.14 49.6374 29.14H51.0954C51.2034 29.14 51.2934 29.176 51.3654 29.248C51.4374 29.32 51.4734 29.404 51.4734 29.5C51.4734 29.584 51.4494 29.68 51.4014 29.788L46.3074 41.578C46.2114 41.806 46.0434 41.92 45.8034 41.92H44.3634ZM57.7696 38.5C57.6496 38.5 57.5476 38.458 57.4636 38.374C57.3796 38.29 57.3376 38.188 57.3376 38.068V31.066H55.8796C55.7596 31.066 55.6576 31.024 55.5736 30.94C55.4896 30.856 55.4476 30.754 55.4476 30.634V29.572C55.4476 29.452 55.4896 29.35 55.5736 29.266C55.6576 29.182 55.7596 29.14 55.8796 29.14H57.3376V28.42C57.3376 27.328 57.6316 26.518 58.2196 25.99C58.8076 25.45 59.6956 25.18 60.8836 25.18H62.1256C62.2456 25.18 62.3476 25.222 62.4316 25.306C62.5156 25.39 62.5576 25.492 62.5576 25.612V26.674C62.5576 26.794 62.5156 26.896 62.4316 26.98C62.3476 27.064 62.2456 27.106 62.1256 27.106H60.9736C60.5056 27.106 60.1756 27.22 59.9836 27.448C59.7916 27.676 59.6956 28.03 59.6956 28.51V29.14H61.9456C62.0656 29.14 62.1676 29.182 62.2516 29.266C62.3356 29.35 62.3776 29.452 62.3776 29.572V30.634C62.3776 30.754 62.3356 30.856 62.2516 30.94C62.1676 31.024 62.0656 31.066 61.9456 31.066H59.6956V38.068C59.6956 38.188 59.6536 38.29 59.5696 38.374C59.4976 38.458 59.3956 38.5 59.2636 38.5H57.7696ZM67.8177 38.68C66.4017 38.68 65.3097 38.32 64.5417 37.6C63.7737 36.88 63.3597 35.884 63.2997 34.612L63.2817 33.82L63.2997 33.028C63.3597 31.768 63.7797 30.778 64.5597 30.058C65.3397 29.326 66.4257 28.96 67.8177 28.96C69.1977 28.96 70.2777 29.326 71.0577 30.058C71.8377 30.778 72.2577 31.768 72.3177 33.028C72.3297 33.172 72.3357 33.436 72.3357 33.82C72.3357 34.204 72.3297 34.468 72.3177 34.612C72.2577 35.884 71.8437 36.88 71.0757 37.6C70.3077 38.32 69.2217 38.68 67.8177 38.68ZM67.8177 36.862C68.4537 36.862 68.9397 36.664 69.2757 36.268C69.6237 35.872 69.8097 35.29 69.8337 34.522C69.8457 34.402 69.8517 34.168 69.8517 33.82C69.8517 33.472 69.8457 33.238 69.8337 33.118C69.8097 32.35 69.6237 31.768 69.2757 31.372C68.9277 30.964 68.4417 30.76 67.8177 30.76C67.1817 30.76 66.6897 30.964 66.3417 31.372C65.9937 31.768 65.8077 32.35 65.7837 33.118L65.7657 33.82L65.7837 34.522C65.8077 35.29 65.9937 35.872 66.3417 36.268C66.6897 36.664 67.1817 36.862 67.8177 36.862ZM74.7616 38.5C74.6416 38.5 74.5396 38.458 74.4556 38.374C74.3716 38.29 74.3296 38.188 74.3296 38.068V29.59C74.3296 29.458 74.3716 29.35 74.4556 29.266C74.5396 29.182 74.6416 29.14 74.7616 29.14H76.2376C76.3696 29.14 76.4776 29.182 76.5616 29.266C76.6456 29.35 76.6876 29.458 76.6876 29.59V30.328C77.2876 29.536 78.1516 29.14 79.2796 29.14H80.0356C80.1676 29.14 80.2696 29.182 80.3416 29.266C80.4256 29.338 80.4676 29.44 80.4676 29.572V30.886C80.4676 31.006 80.4256 31.108 80.3416 31.192C80.2696 31.276 80.1676 31.318 80.0356 31.318H78.6136C78.0496 31.318 77.6056 31.48 77.2816 31.804C76.9576 32.128 76.7956 32.572 76.7956 33.136V38.068C76.7956 38.188 76.7536 38.29 76.6696 38.374C76.5856 38.458 76.4836 38.5 76.3636 38.5H74.7616ZM86.2276 38.5C86.1076 38.5 86.0056 38.458 85.9216 38.374C85.8376 38.29 85.7956 38.188 85.7956 38.068V26.35C85.7956 26.218 85.8316 26.11 85.9036 26.026C85.9876 25.942 86.0956 25.9 86.2276 25.9H94.0576C94.1896 25.9 94.2976 25.942 94.3816 26.026C94.4656 26.11 94.5076 26.218 94.5076 26.35V27.646C94.5076 27.766 94.4656 27.868 94.3816 27.952C94.2976 28.036 94.1896 28.078 94.0576 28.078H88.2976V31.462H93.6976C93.8296 31.462 93.9376 31.504 94.0216 31.588C94.1056 31.672 94.1476 31.774 94.1476 31.894V33.19C94.1476 33.31 94.1056 33.412 94.0216 33.496C93.9376 33.58 93.8296 33.622 93.6976 33.622H88.2976V38.068C88.2976 38.188 88.2556 38.29 88.1716 38.374C88.0876 38.458 87.9796 38.5 87.8476 38.5H86.2276ZM97.0557 38.5C96.9357 38.5 96.8337 38.458 96.7497 38.374C96.6657 38.29 96.6237 38.188 96.6237 38.068V26.35C96.6237 26.218 96.6597 26.11 96.7317 26.026C96.8157 25.942 96.9237 25.9 97.0557 25.9H101.718C103.194 25.9 104.346 26.242 105.174 26.926C106.014 27.61 106.434 28.582 106.434 29.842C106.434 30.718 106.224 31.456 105.804 32.056C105.384 32.644 104.796 33.07 104.04 33.334L106.65 37.924C106.686 37.996 106.704 38.062 106.704 38.122C106.704 38.23 106.662 38.32 106.578 38.392C106.506 38.464 106.422 38.5 106.326 38.5H104.67C104.478 38.5 104.328 38.458 104.22 38.374C104.112 38.278 104.016 38.158 103.932 38.014L101.628 33.748H99.1617V38.068C99.1617 38.188 99.1197 38.29 99.0357 38.374C98.9517 38.458 98.8437 38.5 98.7117 38.5H97.0557ZM101.664 31.696C102.384 31.696 102.924 31.54 103.284 31.228C103.644 30.904 103.824 30.436 103.824 29.824C103.824 29.212 103.644 28.744 103.284 28.42C102.924 28.084 102.384 27.916 101.664 27.916H99.1617V31.696H101.664ZM109.185 38.5C109.065 38.5 108.963 38.458 108.879 38.374C108.795 38.29 108.753 38.188 108.753 38.068V26.35C108.753 26.218 108.789 26.11 108.861 26.026C108.945 25.942 109.053 25.9 109.185 25.9H117.123C117.255 25.9 117.363 25.942 117.447 26.026C117.531 26.11 117.573 26.218 117.573 26.35V27.556C117.573 27.688 117.531 27.796 117.447 27.88C117.363 27.952 117.255 27.988 117.123 27.988H111.219V31.138H116.727C116.859 31.138 116.967 31.18 117.051 31.264C117.135 31.348 117.177 31.456 117.177 31.588V32.722C117.177 32.854 117.135 32.962 117.051 33.046C116.967 33.118 116.859 33.154 116.727 33.154H111.219V36.412H117.267C117.399 36.412 117.507 36.454 117.591 36.538C117.675 36.61 117.717 36.712 117.717 36.844V38.068C117.717 38.2 117.675 38.308 117.591 38.392C117.507 38.464 117.399 38.5 117.267 38.5H109.185ZM120.399 38.5C120.279 38.5 120.177 38.458 120.093 38.374C120.009 38.29 119.967 38.188 119.967 38.068V26.35C119.967 26.218 120.003 26.11 120.075 26.026C120.159 25.942 120.267 25.9 120.399 25.9H128.337C128.469 25.9 128.577 25.942 128.661 26.026C128.745 26.11 128.787 26.218 128.787 26.35V27.556C128.787 27.688 128.745 27.796 128.661 27.88C128.577 27.952 128.469 27.988 128.337 27.988H122.433V31.138H127.941C128.073 31.138 128.181 31.18 128.265 31.264C128.349 31.348 128.391 31.456 128.391 31.588V32.722C128.391 32.854 128.349 32.962 128.265 33.046C128.181 33.118 128.073 33.154 127.941 33.154H122.433V36.412H128.481C128.613 36.412 128.721 36.454 128.805 36.538C128.889 36.61 128.931 36.712 128.931 36.844V38.068C128.931 38.2 128.889 38.308 128.805 38.392C128.721 38.464 128.613 38.5 128.481 38.5H120.399Z" fill="white"/>
<circle cx="170" cy="32" r="16" fill="white"/>
<path d="M168.5 36.9999C168.368 37.0007 168.238 36.9755 168.116 36.9257C167.994 36.8759 167.883 36.8026 167.79 36.7099C167.696 36.617 167.622 36.5064 167.571 36.3845C167.52 36.2626 167.494 36.1319 167.494 35.9999C167.494 35.8679 167.52 35.7372 167.571 35.6154C167.622 35.4935 167.696 35.3829 167.79 35.2899L171.1 31.9999L167.92 28.6899C167.734 28.5026 167.629 28.2491 167.629 27.9849C167.629 27.7207 167.734 27.4673 167.92 27.2799C168.013 27.1862 168.124 27.1118 168.245 27.061C168.367 27.0103 168.498 26.9841 168.63 26.9841C168.762 26.9841 168.893 27.0103 169.015 27.061C169.136 27.1118 169.247 27.1862 169.34 27.2799L173.2 31.2799C173.383 31.4669 173.486 31.7182 173.486 31.9799C173.486 32.2417 173.383 32.493 173.2 32.6799L169.2 36.6799C169.11 36.7769 169.002 36.855 168.882 36.91C168.762 36.9649 168.632 36.9955 168.5 36.9999Z" fill="#3671E9"/>
</svg>
